<mxfile host="app.diagrams.net" modified="2022-10-27T08:35:00.012Z" agent="5.0 (Windows NT 10.0; Win64; x64) AppleWebKit/537.36 (KHTML, like Gecko) Chrome/107.0.0.0 Safari/537.36" etag="OI3DUXHTikJqHEK035cw" version="20.5.1" type="github">
  <diagram id="nL1ZIPSVeM99elvAly5c" name="Page-1">
    <mxGraphModel dx="1221" dy="731" grid="1" gridSize="10" guides="1" tooltips="1" connect="1" arrows="1" fold="1" page="1" pageScale="1" pageWidth="1700" pageHeight="1100" math="0" shadow="0">
      <root>
        <mxCell id="0" />
        <mxCell id="1" parent="0" />
        <mxCell id="jmM0z8ajaVmPtMPQLffI-17" value="" style="rounded=1;whiteSpace=wrap;html=1;dashed=1;fillColor=none;" parent="1" vertex="1">
          <mxGeometry x="280" y="320" width="520" height="330" as="geometry" />
        </mxCell>
        <mxCell id="jmM0z8ajaVmPtMPQLffI-1" value="&lt;font style=&quot;font-size: 20px;&quot;&gt;Seller&lt;/font&gt;" style="ellipse;whiteSpace=wrap;html=1;aspect=fixed;fontStyle=1" parent="1" vertex="1">
          <mxGeometry x="480" y="520" width="120" height="120" as="geometry" />
        </mxCell>
        <mxCell id="jmM0z8ajaVmPtMPQLffI-2" value="&lt;font style=&quot;font-size: 17px;&quot;&gt;Buyer 1&lt;/font&gt;" style="rounded=1;whiteSpace=wrap;html=1;" parent="1" vertex="1">
          <mxGeometry x="320" y="380" width="120" height="60" as="geometry" />
        </mxCell>
        <mxCell id="jmM0z8ajaVmPtMPQLffI-5" value="&lt;font style=&quot;font-size: 17px;&quot;&gt;Buyer 2&lt;/font&gt;" style="rounded=1;whiteSpace=wrap;html=1;" parent="1" vertex="1">
          <mxGeometry x="480" y="380" width="120" height="60" as="geometry" />
        </mxCell>
        <mxCell id="jmM0z8ajaVmPtMPQLffI-6" value="&lt;font style=&quot;font-size: 17px;&quot;&gt;Buyer 3&lt;/font&gt;" style="rounded=1;whiteSpace=wrap;html=1;" parent="1" vertex="1">
          <mxGeometry x="640" y="380" width="120" height="60" as="geometry" />
        </mxCell>
        <mxCell id="jmM0z8ajaVmPtMPQLffI-7" value="" style="endArrow=classic;html=1;rounded=0;entryX=0;entryY=0;entryDx=0;entryDy=0;exitX=0.5;exitY=1;exitDx=0;exitDy=0;" parent="1" source="jmM0z8ajaVmPtMPQLffI-2" target="jmM0z8ajaVmPtMPQLffI-1" edge="1">
          <mxGeometry width="50" height="50" relative="1" as="geometry">
            <mxPoint x="510" y="590" as="sourcePoint" />
            <mxPoint x="560" y="540" as="targetPoint" />
          </mxGeometry>
        </mxCell>
        <mxCell id="jmM0z8ajaVmPtMPQLffI-9" value="" style="endArrow=classic;html=1;rounded=0;entryX=0.5;entryY=0;entryDx=0;entryDy=0;" parent="1" source="jmM0z8ajaVmPtMPQLffI-5" target="jmM0z8ajaVmPtMPQLffI-1" edge="1">
          <mxGeometry width="50" height="50" relative="1" as="geometry">
            <mxPoint x="510" y="590" as="sourcePoint" />
            <mxPoint x="560" y="540" as="targetPoint" />
          </mxGeometry>
        </mxCell>
        <mxCell id="jmM0z8ajaVmPtMPQLffI-11" value="" style="endArrow=classic;html=1;rounded=0;entryX=1;entryY=0;entryDx=0;entryDy=0;exitX=0.5;exitY=1;exitDx=0;exitDy=0;" parent="1" source="jmM0z8ajaVmPtMPQLffI-6" target="jmM0z8ajaVmPtMPQLffI-1" edge="1">
          <mxGeometry width="50" height="50" relative="1" as="geometry">
            <mxPoint x="510" y="590" as="sourcePoint" />
            <mxPoint x="560" y="540" as="targetPoint" />
          </mxGeometry>
        </mxCell>
        <mxCell id="jmM0z8ajaVmPtMPQLffI-12" value="Bid" style="text;html=1;strokeColor=none;fillColor=none;align=center;verticalAlign=middle;whiteSpace=wrap;rounded=0;" parent="1" vertex="1">
          <mxGeometry x="390" y="490" width="60" height="30" as="geometry" />
        </mxCell>
        <mxCell id="jmM0z8ajaVmPtMPQLffI-13" value="Bid" style="text;html=1;strokeColor=none;fillColor=none;align=center;verticalAlign=middle;whiteSpace=wrap;rounded=0;" parent="1" vertex="1">
          <mxGeometry x="490" y="460" width="60" height="30" as="geometry" />
        </mxCell>
        <mxCell id="jmM0z8ajaVmPtMPQLffI-16" value="Bid" style="text;html=1;strokeColor=none;fillColor=none;align=center;verticalAlign=middle;whiteSpace=wrap;rounded=0;" parent="1" vertex="1">
          <mxGeometry x="620" y="490" width="60" height="30" as="geometry" />
        </mxCell>
        <mxCell id="jmM0z8ajaVmPtMPQLffI-18" value="&lt;font style=&quot;font-size: 16px;&quot;&gt;Smart Contract&lt;/font&gt;" style="text;html=1;strokeColor=none;fillColor=none;align=center;verticalAlign=middle;whiteSpace=wrap;rounded=0;dashed=1;fontStyle=1" parent="1" vertex="1">
          <mxGeometry x="455" y="334" width="170" height="30" as="geometry" />
        </mxCell>
        <mxCell id="jmM0z8ajaVmPtMPQLffI-19" value="" style="sketch=0;pointerEvents=1;shadow=0;dashed=0;html=1;strokeColor=none;fillColor=#262626;labelPosition=center;verticalLabelPosition=bottom;verticalAlign=top;outlineConnect=0;align=center;shape=mxgraph.office.concepts.documents_shared;fontColor=#000000;" parent="1" vertex="1">
          <mxGeometry x="710" y="550" width="70" height="70" as="geometry" />
        </mxCell>
        <mxCell id="jmM0z8ajaVmPtMPQLffI-21" value="&lt;font style=&quot;font-size: 22px;&quot;&gt;&lt;span style=&quot;color: rgb(0, 0, 0); font-family: Helvetica; font-style: normal; font-variant-ligatures: normal; font-variant-caps: normal; font-weight: 700; letter-spacing: normal; orphans: 2; text-align: center; text-indent: 0px; text-transform: none; widows: 2; word-spacing: 0px; -webkit-text-stroke-width: 0px; background-color: rgb(248, 249, 250); text-decoration-thickness: initial; text-decoration-style: initial; text-decoration-color: initial; float: none; display: inline !important;&quot;&gt;Blockchain&lt;/span&gt;&lt;br&gt;&lt;/font&gt;" style="rounded=1;whiteSpace=wrap;html=1;fontSize=16;fontColor=#000000;fillColor=none;" parent="1" vertex="1">
          <mxGeometry x="280" y="220" width="520" height="60" as="geometry" />
        </mxCell>
        <mxCell id="jmM0z8ajaVmPtMPQLffI-22" value="" style="endArrow=classic;startArrow=classic;html=1;rounded=0;fontSize=22;fontColor=#000000;entryX=0.5;entryY=1;entryDx=0;entryDy=0;" parent="1" source="jmM0z8ajaVmPtMPQLffI-17" target="jmM0z8ajaVmPtMPQLffI-21" edge="1">
          <mxGeometry width="50" height="50" relative="1" as="geometry">
            <mxPoint x="400" y="540" as="sourcePoint" />
            <mxPoint x="450" y="490" as="targetPoint" />
          </mxGeometry>
        </mxCell>
        <mxCell id="jmM0z8ajaVmPtMPQLffI-27" value="" style="sketch=0;pointerEvents=1;shadow=0;dashed=0;html=1;strokeColor=none;fillColor=#505050;labelPosition=center;verticalLabelPosition=bottom;verticalAlign=top;outlineConnect=0;align=center;shape=mxgraph.office.concepts.node_generic;fontSize=22;fontColor=#000000;" parent="1" vertex="1">
          <mxGeometry x="625" y="234" width="28.31" height="32" as="geometry" />
        </mxCell>
        <mxCell id="jmM0z8ajaVmPtMPQLffI-28" value="" style="sketch=0;pointerEvents=1;shadow=0;dashed=0;html=1;strokeColor=none;fillColor=#505050;labelPosition=center;verticalLabelPosition=bottom;verticalAlign=top;outlineConnect=0;align=center;shape=mxgraph.office.concepts.node_generic;fontSize=22;fontColor=#000000;" parent="1" vertex="1">
          <mxGeometry x="680" y="234" width="28.31" height="32" as="geometry" />
        </mxCell>
        <mxCell id="jmM0z8ajaVmPtMPQLffI-29" value="" style="sketch=0;pointerEvents=1;shadow=0;dashed=0;html=1;strokeColor=none;fillColor=#505050;labelPosition=center;verticalLabelPosition=bottom;verticalAlign=top;outlineConnect=0;align=center;shape=mxgraph.office.concepts.node_generic;fontSize=22;fontColor=#000000;" parent="1" vertex="1">
          <mxGeometry x="731.69" y="234" width="28.31" height="32" as="geometry" />
        </mxCell>
        <mxCell id="jmM0z8ajaVmPtMPQLffI-30" value="" style="sketch=0;pointerEvents=1;shadow=0;dashed=0;html=1;strokeColor=none;fillColor=#505050;labelPosition=center;verticalLabelPosition=bottom;verticalAlign=top;outlineConnect=0;align=center;shape=mxgraph.office.concepts.node_generic;fontSize=22;fontColor=#000000;" parent="1" vertex="1">
          <mxGeometry x="320" y="234" width="28.31" height="32" as="geometry" />
        </mxCell>
        <mxCell id="jmM0z8ajaVmPtMPQLffI-31" value="" style="sketch=0;pointerEvents=1;shadow=0;dashed=0;html=1;strokeColor=none;fillColor=#505050;labelPosition=center;verticalLabelPosition=bottom;verticalAlign=top;outlineConnect=0;align=center;shape=mxgraph.office.concepts.node_generic;fontSize=22;fontColor=#000000;" parent="1" vertex="1">
          <mxGeometry x="375" y="234" width="28.31" height="32" as="geometry" />
        </mxCell>
        <mxCell id="jmM0z8ajaVmPtMPQLffI-32" value="" style="sketch=0;pointerEvents=1;shadow=0;dashed=0;html=1;strokeColor=none;fillColor=#505050;labelPosition=center;verticalLabelPosition=bottom;verticalAlign=top;outlineConnect=0;align=center;shape=mxgraph.office.concepts.node_generic;fontSize=22;fontColor=#000000;" parent="1" vertex="1">
          <mxGeometry x="426.69000000000005" y="234" width="28.31" height="32" as="geometry" />
        </mxCell>
        <mxCell id="jmM0z8ajaVmPtMPQLffI-33" value="" style="endArrow=none;dashed=1;html=1;rounded=0;fontSize=22;fontColor=#000000;" parent="1" source="jmM0z8ajaVmPtMPQLffI-30" target="jmM0z8ajaVmPtMPQLffI-31" edge="1">
          <mxGeometry width="50" height="50" relative="1" as="geometry">
            <mxPoint x="460" y="360" as="sourcePoint" />
            <mxPoint x="510" y="310" as="targetPoint" />
          </mxGeometry>
        </mxCell>
        <mxCell id="jmM0z8ajaVmPtMPQLffI-34" value="" style="endArrow=none;dashed=1;html=1;rounded=0;fontSize=22;fontColor=#000000;" parent="1" source="jmM0z8ajaVmPtMPQLffI-31" target="jmM0z8ajaVmPtMPQLffI-32" edge="1">
          <mxGeometry width="50" height="50" relative="1" as="geometry">
            <mxPoint x="403.30999999999995" y="249.83" as="sourcePoint" />
            <mxPoint x="410" y="250" as="targetPoint" />
          </mxGeometry>
        </mxCell>
        <mxCell id="jmM0z8ajaVmPtMPQLffI-35" value="" style="endArrow=none;dashed=1;html=1;rounded=0;fontSize=22;fontColor=#000000;" parent="1" source="jmM0z8ajaVmPtMPQLffI-28" target="jmM0z8ajaVmPtMPQLffI-27" edge="1">
          <mxGeometry width="50" height="50" relative="1" as="geometry">
            <mxPoint x="580" y="249.83" as="sourcePoint" />
            <mxPoint x="603.3800000000001" y="249.83" as="targetPoint" />
          </mxGeometry>
        </mxCell>
        <mxCell id="jmM0z8ajaVmPtMPQLffI-36" value="" style="endArrow=none;dashed=1;html=1;rounded=0;fontSize=22;fontColor=#000000;" parent="1" source="jmM0z8ajaVmPtMPQLffI-28" target="jmM0z8ajaVmPtMPQLffI-29" edge="1">
          <mxGeometry width="50" height="50" relative="1" as="geometry">
            <mxPoint x="690" y="260" as="sourcePoint" />
            <mxPoint x="663.31" y="260" as="targetPoint" />
          </mxGeometry>
        </mxCell>
      </root>
    </mxGraphModel>
  </diagram>
</mxfile>
